HIERARCHY
ROOT Hips
{
	OFFSET -3.958830 18.904000 13.208200
	CHANNELS 6 Xposition Yposition Zposition Zrotation Yrotation Xrotation 
	JOINT LHipJoint
	{
		OFFSET 0.000000 0.000000 0.000000
		CHANNELS 3 Zrotation Yrotation Xrotation
		JOINT LeftUpLeg
		{
			OFFSET 1.800000 -1.400000 0.085000
			CHANNELS 3 Zrotation Yrotation Xrotation
			JOINT LeftLeg
			{
				OFFSET 2.215000 -6.000000 0.000000
				CHANNELS 3 Zrotation Yrotation Xrotation
				JOINT LeftFoot
				{
					OFFSET 2.500000 -6.900000 0.000000
					CHANNELS 3 Zrotation Yrotation Xrotation
					JOINT LeftToeBase
					{
						OFFSET 0.200000 -0.500000 1.950000
						CHANNELS 3 Zrotation Yrotation Xrotation
						End Site
						{
							OFFSET 0.000000 0.000000 0.000000
						}
					}
				}
			}
		}
	}
	JOINT RHipJoint
	{
		OFFSET 0.000000 0.000000 0.000000
		CHANNELS 3 Zrotation Yrotation Xrotation
		JOINT RightUpLeg
		{
			OFFSET -1.800000 -1.400000 0.085000
			CHANNELS 3 Zrotation Yrotation Xrotation
			JOINT RightLeg
			{
				OFFSET -2.215000 -6.000000 0.000000
				CHANNELS 3 Zrotation Yrotation Xrotation
				JOINT RightFoot
				{
					OFFSET -2.500000 -6.900000 0.000000
					CHANNELS 3 Zrotation Yrotation Xrotation
					JOINT RightToeBase
					{
						OFFSET -0.200000 -0.500000 1.950000
						CHANNELS 3 Zrotation Yrotation Xrotation
						End Site
						{
							OFFSET 0.000000 0.000000 0.000000
						}
					}
				}
			}
		}
	}
	JOINT LowerBack
	{
		OFFSET 0.000000 0.000000 0.000000
		CHANNELS 3 Zrotation Yrotation Xrotation
		JOINT Spine
		{
			OFFSET -0.087000 1.940000 -0.288900
			CHANNELS 3 Zrotation Yrotation Xrotation
			JOINT Spine1
			{
				OFFSET 0.000000 1.950000 0.060000
				CHANNELS 3 Zrotation Yrotation Xrotation
				JOINT Neck
				{
					OFFSET 0.000000 0.000000 0.000000
					CHANNELS 3 Zrotation Yrotation Xrotation
					JOINT Neck1
					{
						OFFSET 0.000000 1.600000 0.340000
						CHANNELS 3 Zrotation Yrotation Xrotation
						JOINT Head
						{
							OFFSET 0.000000 1.667000 -0.240000
							CHANNELS 3 Zrotation Yrotation Xrotation
							End Site
							{
								OFFSET 0.000000 0.000000 0.000000
							}
						}
					}
				}
				JOINT LeftShoulder
				{
					OFFSET 0.000000 0.000000 0.000000
					CHANNELS 3 Zrotation Yrotation Xrotation
					JOINT LeftArm
					{
						OFFSET 2.700000 1.550000 -0.730000
						CHANNELS 3 Zrotation Yrotation Xrotation
						JOINT LeftForeArm
						{
							OFFSET 5.450000 0.000000 0.000000
							CHANNELS 3 Zrotation Yrotation Xrotation
							JOINT LeftHand
							{
								OFFSET 3.450000 0.000000 0.000000
								CHANNELS 3 Zrotation Yrotation Xrotation
								JOINT LeftHandIndex1
								{
									OFFSET 0.750000 0.000000 0.000000
									CHANNELS 3 Zrotation Yrotation Xrotation
									End Site
									{
										OFFSET 0.000000 0.000000 0.000000
									}
								}
							}
						}
					}
				}
				JOINT RightShoulder
				{
					OFFSET 0.000000 0.000000 0.000000
					CHANNELS 3 Zrotation Yrotation Xrotation
					JOINT RightArm
					{
						OFFSET -2.700000 1.550000 -0.730000
						CHANNELS 3 Zrotation Yrotation Xrotation
						JOINT RightForeArm
						{
							OFFSET -5.450000 0.000000 0.000000
							CHANNELS 3 Zrotation Yrotation Xrotation
							JOINT RightHand
							{
								OFFSET -3.450000 0.000000 0.000000
								CHANNELS 3 Zrotation Yrotation Xrotation
								JOINT RightHandIndex1
								{
									OFFSET -0.750000 0.000000 0.000000
									CHANNELS 3 Zrotation Yrotation Xrotation
									End Site
									{
										OFFSET 0.000000 0.000000 0.000000
									}
								}
							}
						}
					}
				}
			}
		}
	}
}
MOTION
Frames: 11
Frame Time: 0.016667
16.096020 16.860690 -25.385610 -11.622919 49.559187 -2.945110 -16.425590 8.243870 7.581458 34.124191 -6.324497 -45.645292 -72.437088 7.491880 -5.890749 1.815873 15.593360 3.309136 -9.728790 -11.672350 -6.198350 18.331361 -4.030335 4.345452 -51.852799 -9.536083 -20.003124 77.568618 -18.867213 -2.146381 4.079770 -12.598402 2.012592 -4.089360 8.550230 -1.702490 0.947815 -8.268365 -10.189037 -19.576573 0.691822 -0.572976 26.419983 -13.720417 -7.708274 -9.442751 -24.115310 -26.015718 -12.341294 -37.660450 -12.078829 -34.659320 -13.820130 63.958830 -38.046104 -38.795792 12.519403 -63.484271 4.762216 -17.225441 -54.160624 17.456514 -16.536487 -11.951750 2.097023 -4.284220 6.403140 -7.652790 -1.583700 68.896800 37.937535 11.882754 -23.011277 -32.992186 14.033642 4.624946 -5.854991 -5.003381 -1.933612 -0.358093 -5.096820 2.252570 5.422260 0.582470 
16.097810 16.843830 -25.510580 -9.819563 49.893005 -2.011969 -16.342274 8.269117 7.298613 30.704493 -9.036960 -46.508153 -69.818289 7.256200 -4.228203 1.513085 14.460326 3.089830 -8.832230 -10.702250 -5.496600 18.333464 -4.303531 4.576715 -52.952718 -10.214568 -20.028623 76.533257 -18.588259 -1.895320 3.551655 -11.710977 2.221607 -3.916840 7.295700 -1.975810 0.618786 -7.834017 -10.491773 -19.140984 -0.511418 1.639304 25.499034 -14.673803 -9.395932 -7.978325 -24.612749 -27.403663 -14.395645 -36.366593 -11.115911 -32.893230 -12.482570 67.051350 -42.625342 -40.797630 13.256447 -61.314386 6.626091 -17.361500 -54.942830 17.509265 -17.171103 -10.615830 1.935961 -3.434097 5.289310 -6.882380 -1.526600 71.139736 39.338444 12.610718 -23.700517 -33.792435 12.878359 3.378407 -5.526599 -3.839613 -1.489006 0.134260 -4.813390 2.164470 4.972650 0.265070 
16.121180 16.814300 -25.813600 -7.274499 50.714901 -1.884593 -16.098445 8.221447 6.698027 22.867606 -14.894039 -47.153320 -62.802575 7.534101 0.356108 0.824690 12.485408 2.717590 -7.291880 -8.978980 -4.429430 18.385827 -5.232203 5.099856 -54.438795 -11.254288 -19.849525 73.085421 -17.970941 -1.113004 2.677508 -10.366243 2.403977 -3.425060 5.364170 -2.372020 -0.463056 -6.496739 -11.206218 -16.781048 -3.454847 7.222553 24.005110 -17.463460 -11.562039 -4.272097 -25.745270 -31.759737 -20.238325 -31.846465 -7.425561 -27.733550 -11.346050 71.455060 -53.101726 -45.943598 14.462347 -55.209637 11.814995 -16.727571 -57.900974 15.646273 -18.345484 -8.447643 1.484050 -2.083350 3.539660 -5.610800 -1.434400 75.439120 43.945328 14.577385 -24.798428 -34.855596 11.913735 0.574556 -4.827151 -1.961073 -0.767954 1.165090 -4.354850 2.119900 4.303910 -0.184220 
16.207150 16.771520 -26.341690 -4.915773 51.623996 -4.867430 -15.587005 7.639372 6.229987 8.572157 -23.045387 -43.820814 -48.414355 7.768418 7.998308 -0.574478 9.517178 2.390898 -4.905240 -6.220840 -2.856290 18.647676 -7.258547 5.982969 -55.624914 -12.219010 -19.455264 64.894807 -17.039099 1.257244 1.446126 -9.052340 2.251611 -2.208910 3.067540 -2.630740 -3.688386 -2.592133 -13.088580 -10.003087 -7.426174 17.954501 23.949758 -23.750089 -0.459204 1.821596 -23.453075 -52.773078 -32.945882 -19.424266 7.233193 -16.389750 -14.158890 64.615130 -58.010688 -66.299658 14.159253 -46.753581 12.044436 -15.253913 -61.921394 6.304252 -17.282141 -5.661428 0.625569 -0.421330 1.525320 -3.878410 -1.274860 67.096751 63.712969 17.980840 -12.595957 -35.084036 11.961773 -2.728369 -5.825132 -0.032923 0.475947 3.134324 -3.740160 2.196060 3.355940 -0.723250 
16.474930 16.622260 -27.100720 -4.639502 44.104649 -10.708483 -15.392443 8.755964 6.674493 -12.273287 -26.192749 -38.285325 -21.400346 6.498964 16.426679 -2.339852 5.969638 2.843125 -3.209440 -4.349270 -1.547530 18.878255 -6.810669 5.818008 -53.103184 -11.660680 -23.115345 50.163423 -16.794568 8.090181 0.790434 -8.370890 1.927036 -1.160850 1.615590 -2.457220 -4.683523 -3.953410 -13.017604 -2.290392 -20.447586 24.881064 15.490215 -28.480317 10.822450 0.017397 -11.756718 -61.044672 -30.061245 -2.828044 32.093518 -5.624930 -12.177780 37.078360 -39.854377 -67.593178 11.385339 -37.184446 1.017568 -18.620490 -64.947676 -13.629713 -10.153650 -3.333995 0.098265 0.767050 0.472700 -2.660060 -1.327520 35.753277 67.253983 24.064298 8.029483 -1.369595 -1.256831 -0.617844 -11.158220 1.266646 1.993717 2.688779 -3.382570 2.153930 2.754030 -1.245250 
16.731570 16.315650 -27.765390 -2.415894 15.384453 -7.038895 -15.625711 9.025015 7.437512 -14.014961 -24.118420 -53.400817 1.347596 3.626719 16.501719 -3.216958 3.780160 3.525050 -2.850100 -3.998440 -1.076420 18.718021 -6.175126 5.287089 -34.260335 -3.049650 -52.656383 24.516310 -14.166832 25.687578 1.335160 -6.526019 2.430065 -0.877230 1.313890 -2.309840 -3.368699 -4.372192 -11.553312 4.140013 -19.337782 27.886420 7.399964 -19.385518 12.137438 0.621875 -7.416874 -49.648241 -16.538647 -1.533676 30.503573 -6.688240 -5.599590 20.821100 -16.962357 -58.268837 9.690088 -34.517778 -9.687220 -22.119673 -65.698156 -28.825026 -1.668580 -3.328422 0.455526 1.105000 0.387620 -2.397530 -1.448330 10.205322 64.259076 19.392555 8.476310 24.689190 -4.364781 1.267273 -11.252276 1.144360 2.340702 2.224424 -3.421310 2.134150 2.644790 -1.517920 
16.778240 16.239600 -28.013380 -2.069570 -16.639602 -4.464358 -15.686961 10.301124 6.975943 5.036512 -11.330090 -64.727920 -0.704047 5.629351 13.558781 -3.439527 4.778252 2.915711 -2.661800 -3.801970 -0.794290 18.327641 -6.143772 6.491429 -6.792748 16.157549 -63.091428 3.367128 -4.525000 28.119164 1.775105 -2.453819 3.955631 -0.668920 1.201920 -2.160610 -2.894051 -4.994908 -12.514487 2.409158 -10.557023 34.107385 8.154525 -10.097503 8.789864 5.363183 -8.270515 -43.408405 -13.544277 3.918788 34.583998 -9.767210 3.404590 10.642660 -12.033791 -48.563220 6.125931 -38.350915 -8.258095 -19.990252 -62.557444 -34.175892 3.599325 -3.652174 0.930186 1.288500 0.460810 -2.272050 -1.553670 6.695325 65.031661 17.774749 12.809077 38.597740 -7.547575 -4.882050 -13.288830 0.942293 4.600468 -0.368725 -3.489360 2.110540 2.634110 -1.724040 
16.733940 16.260620 -28.093670 -3.728467 -41.310850 -0.248986 -16.551167 9.396451 6.355464 22.620535 2.651402 -63.340474 -3.765564 8.646150 10.022822 -3.300645 7.385481 1.691196 -2.507580 -3.625500 -0.565260 17.989971 -4.345348 6.816485 15.276463 26.349320 -53.940390 -4.451679 -1.012450 21.065259 1.876351 -1.041281 4.521456 -0.512310 1.091190 -2.053140 -1.957219 -5.489876 -11.851355 -0.504702 -6.358387 25.728666 5.153450 -8.895255 26.285892 8.663908 -5.177233 -42.600927 -10.293285 7.844406 29.321910 -13.676870 11.320200 3.119140 -7.506440 -34.367217 -1.591288 -37.441384 -7.781449 -20.275871 -61.271031 -38.767420 5.662848 -4.468210 0.704495 1.415030 0.518120 -2.165320 -1.637620 -5.212071 42.623726 52.104031 -72.344944 46.337960 -174.360849 -15.652483 0.609734 1.515299 0.067633 0.064810 -3.517030 2.078840 2.615900 -1.891550 
16.650710 16.318810 -28.070910 -9.609864 -55.381141 5.344784 -16.560815 8.000304 7.281202 37.201959 10.600046 -54.037663 -7.147228 10.105322 5.522073 -3.087193 9.382970 0.801582 -2.425390 -3.529030 -0.449130 18.141778 -4.493254 7.072556 29.408758 27.679161 -42.629025 -5.145075 -0.757600 16.348774 1.831301 -0.775905 4.588736 -0.453940 1.019450 -2.017410 -3.006884 -2.857682 -13.911671 5.411579 -1.742725 29.642452 9.156500 -0.098603 12.672188 1.673211 -5.417472 -32.891138 -5.786326 11.250928 37.602215 -14.980530 16.835030 -1.070710 -16.526473 -38.918902 5.763905 -42.647081 -2.424017 -16.798391 -59.414116 -35.043212 5.684737 -4.742533 0.870259 1.513460 0.511020 -2.082250 -1.667650 17.661509 48.338031 20.756272 30.747639 60.010014 -1.972194 -14.601889 -19.310128 2.649317 3.207876 -0.665439 -3.526360 2.074120 2.595190 -1.975260 
16.539260 16.377970 -27.999680 -16.153901 -62.452492 13.074197 -16.802312 6.753773 7.307964 47.582883 12.751157 -44.456852 -9.814865 9.580854 -0.121570 -2.692025 10.098230 0.544400 -2.261980 -3.298480 -0.345420 18.174888 -4.311867 6.288658 35.714739 26.676077 -36.671441 -3.401233 -0.935066 15.149510 1.668908 -0.652295 4.627861 -0.442640 0.821360 -2.063390 -4.049763 -1.590755 -12.496018 10.314137 -1.369948 22.258420 7.369717 1.038042 10.025768 -0.834780 -2.431381 -21.374240 -1.517654 12.733974 36.946635 -16.672450 20.522690 -4.731490 -22.617327 -36.058395 9.777822 -44.270220 3.506154 -15.618190 -58.509838 -31.355161 4.396038 -4.979073 0.678188 1.536150 0.358470 -1.955250 -1.636250 25.377326 38.925044 10.941727 57.575738 51.028004 0.936754 -25.056487 -24.531968 6.374524 1.831444 0.322568 -3.366800 2.024900 2.462870 -1.992610 
16.402830 16.417900 -27.900460 -21.110958 -65.014828 19.935087 -16.955312 6.288679 7.679135 54.590187 11.765225 -36.558192 -12.058684 7.422539 -8.731061 -2.507790 10.609873 0.388082 -2.434640 -3.511830 -0.491310 18.123563 -3.966963 6.058883 37.244654 26.639158 -35.231582 -1.443138 -1.286545 15.279718 1.726736 -0.730520 4.619830 -0.538420 0.925630 -2.053700 -4.432999 -2.232931 -12.288781 13.466247 -3.690456 19.957050 5.317018 -0.088856 2.246090 -1.214677 -3.436673 -14.096789 -5.017161 15.329095 36.022683 -15.510000 21.602540 -3.628220 -25.650608 -26.701015 9.717213 -46.070590 8.458022 -13.390387 -57.024163 -26.025215 2.822514 -5.111615 0.610231 1.586450 0.389510 -1.995160 -1.668600 28.422879 29.996770 3.946215 75.044261 37.672832 -0.075811 -38.622017 -17.631122 6.766449 1.508750 0.468252 -3.455090 2.040920 2.579300 -1.960880 
